<?xml version="1.0" encoding="UTF-8" standalone="no"?>
<!-- Created with Inkscape (http://www.inkscape.org/) -->

<svg
   xmlns:dc="http://purl.org/dc/elements/1.1/"
   xmlns:cc="http://creativecommons.org/ns#"
   xmlns:rdf="http://www.w3.org/1999/02/22-rdf-syntax-ns#"
   xmlns:svg="http://www.w3.org/2000/svg"
   xmlns="http://www.w3.org/2000/svg"
   xmlns:sodipodi="http://sodipodi.sourceforge.net/DTD/sodipodi-0.dtd"
   xmlns:inkscape="http://www.inkscape.org/namespaces/inkscape"
   width="69.045769mm"
   height="7.8677192mm"
   viewBox="0 0 69.045769 7.8677192"
   version="1.1"
   id="svg8"
   inkscape:version="0.92.4 (5da689c313, 2019-01-14)"
   sodipodi:docname="nm_text.svg">
  <defs
     id="defs2" />
  <sodipodi:namedview
     id="base"
     pagecolor="#ffffff"
     bordercolor="#666666"
     borderopacity="1.0"
     inkscape:pageopacity="0.0"
     inkscape:pageshadow="2"
     inkscape:zoom="0.49497475"
     inkscape:cx="1081.3263"
     inkscape:cy="-78.032651"
     inkscape:document-units="mm"
     inkscape:current-layer="layer1"
     showgrid="false"
     inkscape:window-width="1920"
     inkscape:window-height="1001"
     inkscape:window-x="-9"
     inkscape:window-y="-9"
     inkscape:window-maximized="1" />
  <metadata
     id="metadata5">
    <rdf:RDF>
      <cc:Work
         rdf:about="">
        <dc:format>image/svg+xml</dc:format>
        <dc:type
           rdf:resource="http://purl.org/dc/dcmitype/StillImage" />
        <dc:title></dc:title>
      </cc:Work>
    </rdf:RDF>
  </metadata>
  <g
     inkscape:label="Layer 1"
     inkscape:groupmode="layer"
     id="layer1"
     transform="translate(-55.163119,-92.205378)">
    <g
       aria-label="NIGHTMOUSE"
       style="font-style:normal;font-weight:normal;font-size:10.58333302px;line-height:1.25;font-family:sans-serif;letter-spacing:0px;word-spacing:0px;fill:#000000;fill-opacity:1;stroke:#000000;stroke-width:0.1;stroke-miterlimit:4;stroke-dasharray:none;stroke-opacity:1"
       id="text827">
      <path
         d="m 61.212799,93.54805 -0.134359,0.211873 0.02067,0.165365 0.05168,-0.02067 q 0,0.07235 -0.07235,0.24288 l -0.06201,0.139526 v 0.542603 l -0.10852,0.242879 0.02067,0.155029 -0.09302,0.480591 0.04134,0.124023 -0.08268,0.382406 0.02067,0.170532 -0.07751,0.273885 0.07751,0.26355 -0.170532,0.26355 0.04134,0.149861 -0.09302,0.180868 0.05168,0.103353 0.04134,0.496094 0.07235,0.160196 q -0.07751,0.05168 -0.113688,0.129192 l -0.09818,-0.02067 -0.05168,-0.521932 -0.07235,-0.02067 q -0.01033,-0.09302 -0.0155,-0.186035 0,-0.09819 -0.0052,-0.191202 v -0.206706 q 0,-0.113688 -0.03101,-0.170532 l -0.06718,-0.134359 -0.201538,-0.03101 -0.113689,-0.139526 -0.05168,0.06718 -0.09819,-0.118856 -0.170532,0.05168 -0.206706,-0.165365 -0.108521,0.02067 -0.211873,-0.04134 -0.124023,-0.129191 -0.07751,0.02067 -0.645955,-0.413411 -0.07235,-0.09302 -0.222209,-0.09819 -0.139526,-0.1757 -0.124024,-0.06718 -0.170532,-0.170533 -0.475423,-0.206705 -0.341065,-0.434082 -0.144694,-0.01034 -0.07751,-0.118856 q -0.144694,-0.06201 -0.335897,-0.28422 h 0.05168 q -0.09819,-0.08785 -0.170532,-0.242879 l -0.07235,-0.02584 h -0.02067 q -0.113688,0 -0.149861,0.07235 -0.03101,0.07235 -0.07235,0.310058 l -0.09819,0.542603 0.09819,0.325561 -0.149862,0.542603 q 0.06201,0.325561 0.06201,0.356567 v 0.04134 q 0,0.129191 -0.06718,0.206706 -0.06718,0.07752 -0.06718,0.113688 0,0.02584 0.134359,0.07235 l -0.06201,0.222209 v 0.26355 l -0.05168,0.289388 0.05168,0.113688 -0.05168,0.07751 q -0.02067,0.315227 -0.139527,0.496094 h -0.07235 q -0.129191,0 -0.129191,-0.201538 v -0.04134 l 0.129191,-0.413411 -0.05168,-0.170533 0.07235,-0.222208 -0.07235,-0.08268 0.08268,-0.170532 -0.118856,-0.160197 q 0.02584,-0.124023 0.02584,-0.201538 0,-0.08268 -0.02584,-0.232544 l 0.04651,0.02067 0.04134,-0.103353 -0.08785,-0.160197 0.08785,-0.242879 -0.05168,-0.315227 0.07235,-0.341064 -0.06201,-0.232544 0.07235,-0.506429 -0.01033,-0.392741 0.05168,-0.361735 -0.05168,-0.113688 0.01033,-0.511597 0.118856,-0.031 q -0.139526,-0.134359 -0.139526,-0.24288 0,-0.06201 0.06201,-0.113688 l 0.191203,0.04134 0.05168,-0.07235 q 0.09819,0.07752 0.09819,0.165365 0,0.06201 -0.05684,0.149862 h 0.149861 l 0.02067,0.242879 0.129191,0.10852 0.02067,0.15503 0.170532,0.10852 0.05684,0.217041 q 0.03101,0.124024 0.10852,0.186035 l 0.3514,0.253215 v 0.02067 q 0,0.08268 0.108521,0.191203 l 0.242879,0.165365 0.26355,0.310058 0.826823,0.687297 h 0.09302 q 0.113688,0.09302 0.144694,0.170532 0.03101,0.07752 0.05684,0.08268 l 0.335897,0.108521 0.268717,0.222208 0.15503,0.05168 0.299723,0.170532 0.28422,0.08268 q 0.26355,0.26355 0.444418,0.26355 l 0.160197,-0.04134 h 0.03101 l 0.02067,-0.294556 0.149862,-0.320393 -0.07752,-0.07235 0.03101,-0.496094 0.118856,-0.180868 -0.0155,-0.118856 q -0.0052,-0.05168 -0.103353,-0.211873 l 0.118856,-0.413411 -0.05168,-0.387574 0.103353,-0.754475 -0.124023,-0.134359 0.144694,-0.434082 -0.05168,-0.05684 0.07235,-0.09302 -0.02067,-0.07235 0.160197,-0.07751 0.03101,0.07751 0.149862,-0.03101 q -0.03101,0.108521 -0.03101,0.196371 0,0.103353 0.05168,0.186035 0.05168,0.07751 0.05168,0.103353 l -0.07235,0.201538 z"
         style="font-style:normal;font-variant:normal;font-weight:normal;font-stretch:normal;font-family:'Bradley Hand ITC';-inkscape-font-specification:'Bradley Hand ITC';stroke:#000000;stroke-width:0.1;stroke-miterlimit:4;stroke-dasharray:none;stroke-opacity:1"
         id="path837"
         inkscape:connector-curvature="0" />
      <path
         d="m 63.868967,92.690221 -0.04134,0.01034 -0.06201,0.160197 0.06201,0.031 -0.03101,0.232544 q -0.03101,0.04651 -0.03101,0.103353 l 0.03101,0.139527 v 0.129191 l -0.05168,0.05168 0.05168,0.06201 -0.07751,0.191203 0.02584,0.180867 -0.170533,0.335897 0.04134,0.02067 q -0.02067,0.05168 -0.02067,0.129192 l 0.02067,0.160196 v 0.02067 l -0.118855,0.05168 0.118855,0.26355 h -0.07235 l 0.03101,0.09819 -0.07751,0.134359 0.09819,0.180868 -0.02067,0.07235 h -0.05168 q -0.03617,0 -0.03617,0.06718 0,0.118856 0.129191,0.201538 -0.103352,0.04651 -0.113688,0.294556 l -0.0155,0.113688 0.05684,0.170532 -0.05684,0.129191 0.01034,0.392741 -0.05168,0.273885 0.108521,0.05168 q -0.02067,0.10852 -0.05168,0.160197 -0.02584,0.04651 -0.02584,0.09302 0,0.08785 0.108521,0.222209 l -0.07235,0.02067 0.134358,0.139527 -0.05168,0.08268 0.149862,0.04651 q -0.03101,0.149861 -0.118856,0.253214 -0.09302,-0.03101 -0.09302,-0.139526 l -0.139526,-0.180868 -0.08268,-0.02067 0.04134,-0.180868 -0.170533,-0.191202 0.07235,-0.09302 -0.103352,-0.160197 0.03101,-0.222209 q -0.02067,-0.05684 -0.04134,-0.103352 l -0.04134,-0.08785 0.08268,-0.124024 -0.04134,-0.139526 0.04134,-0.09302 -0.139526,-0.10852 0.108521,-0.15503 -0.01034,-0.713134 0.07235,-0.54777 -0.03101,-0.542603 0.05168,-0.144694 -0.05168,-0.04134 0.03101,-0.129191 v -0.191203 l 0.04134,-0.07235 -0.07235,-0.02067 0.05168,-0.242879 q -0.118856,0 -0.144694,-0.07751 h 0.144694 l 0.02067,-0.170533 -0.07235,-0.02067 0.05168,-0.124024 q 0.08785,-0.07235 0.08785,-0.149861 0,-0.07751 -0.06718,-0.160197 l 0.06718,-0.02067 v -0.09302 h 0.103353 l 0.06201,-0.149862 0.08785,-0.03101 q 0.253215,0 0.294556,0.170532 z"
         style="font-style:normal;font-variant:normal;font-weight:normal;font-stretch:normal;font-family:'Bradley Hand ITC';-inkscape-font-specification:'Bradley Hand ITC';stroke:#000000;stroke-width:0.1;stroke-miterlimit:4;stroke-dasharray:none;stroke-opacity:1"
         id="path839"
         inkscape:connector-curvature="0" />
      <path
         d="m 71.951161,96.002681 -0.366903,0.594278 q -0.03617,0.04651 -0.03617,0.08268 0,0.02067 0.139527,0.211873 l -0.07235,0.04134 -0.03101,0.372071 -0.108521,0.273885 0.139527,0.118855 -0.160197,0.08268 v 0.129191 l 0.09302,0.08268 -0.04134,0.201538 0.04134,0.232544 -0.04134,0.149862 0.07752,0.08268 -0.07752,0.08268 0.04134,0.253215 -0.09302,0.258382 0.129191,0.113688 -0.03617,0.273885 0.139527,0.242879 q -0.0155,0.139533 -0.103353,0.139533 -0.04134,0 -0.103353,-0.06202 -0.05684,-0.06201 -0.05684,-0.07752 l -0.05168,-0.335896 -0.129192,-0.04134 v -0.139527 l -0.113688,-0.28422 v -0.170532 l -0.05684,-0.07235 0.01033,-0.118856 -0.07235,-0.03101 0.04134,-0.09302 h -0.08268 q 0.0155,-0.05684 0.04134,-0.05684 0.03101,0 0.06201,0.03617 l -0.07235,-0.170532 0.05168,-0.149862 -0.04134,-0.139526 0.07235,-0.09302 -0.07235,-0.03101 q 0.06201,-0.08268 0.06201,-0.180867 l -0.06201,-0.454753 0.07235,-0.211873 -0.031,-0.05168 q -0.04134,-0.01033 -0.04134,-0.118856 -0.02067,-0.08268 -0.08268,-0.155029 l -0.09819,0.07235 q -0.08268,0.108521 -0.19637,0.155029 -0.108521,0.04651 -0.361735,0.05168 -0.253215,0 -0.3514,0.08785 l -0.09302,0.08785 -0.382405,0.08268 -0.170533,0.09302 h -0.242879 l -0.170532,0.08785 -0.222209,-0.02067 -0.144694,0.103353 -0.139526,-0.04134 -0.09302,0.09302 q -0.06718,0 -0.155029,-0.02067 -0.08268,-0.02067 -0.113688,-0.02067 -0.09819,0 -0.180868,0.06718 -0.04134,-0.04651 -0.103352,-0.04651 -0.04134,0 -0.06201,0.02067 l -0.04134,0.0155 -0.05684,-0.0155 -0.165365,0.09819 -0.160197,-0.129191 -0.129191,0.06718 -0.335897,-0.108521 -0.06718,0.04134 -0.124024,-0.06201 h -0.263549 l -0.129191,-0.103353 -0.222209,-0.108521 -0.403076,-0.413411 -0.05168,-0.315226 -0.118855,-0.149862 0.07751,-0.170532 -0.08785,-0.103353 0.05684,-0.06201 -0.07751,-0.118856 0.03101,-0.05168 0.139526,-0.02067 v -0.129191 l 0.09819,-0.170532 0.02067,0.04651 q 0.134358,-0.139526 0.134358,-0.279053 l -0.01033,-0.05168 q 0.222209,-0.03101 0.273885,-0.382406 l -0.08268,0.139526 q 0.10852,-0.28422 0.222209,-0.28422 h 0.02067 l -0.04134,0.07235 q 0.09302,-0.04651 0.09302,-0.139526 v -0.03101 l 0.118855,-0.02067 -0.02067,0.04134 0.07235,-0.02067 0.02067,-0.144694 0.05168,0.04134 v -0.07752 h 0.118856 l 0.08268,-0.06201 q 0.03617,-0.03101 0.10852,-0.191203 l 0.222209,-0.04134 q 0.217041,-0.222209 0.222209,-0.273885 l 0.160197,-0.05168 0.05168,-0.09819 0.201538,-0.02067 0.170532,-0.170532 q 0.170533,-0.02067 0.325562,-0.113688 l 0.03101,-0.05168 0.02067,0.02067 0.09819,-0.07751 -0.02067,-0.02067 q 0.09302,-0.06201 0.124023,-0.06201 0.02067,0 0.08785,0.03101 0.09302,-0.191203 0.222209,-0.191203 h 0.222209 q 0.08785,0 0.242879,-0.170532 l 0.09302,0.01033 0.170533,-0.103352 0.07235,0.02067 q 0.07235,-0.05168 0.19637,-0.07752 0.124024,-0.02584 0.134359,-0.06201 l 0.05168,-0.03101 0.05168,0.01034 0.232544,-0.01034 0.04134,-0.08268 0.129191,0.02067 0.222208,-0.03101 0.02067,-0.04134 0.170532,0.07235 h 0.160197 l 0.186035,0.160197 q 0.09819,0.0155 0.268718,0.124024 -0.04651,0.237711 -0.382406,0.299723 l -0.330729,-0.170532 -0.09302,0.04134 -0.180867,-0.07235 -0.124023,0.07235 -0.180868,-0.05168 -0.310059,0.160197 -0.124023,-0.06718 q -0.325562,0.08268 -0.387573,0.118856 -0.05684,0.03617 -0.08785,0.08268 -0.149862,0.118856 -0.242879,0.118856 -0.03617,0 -0.09819,-0.02067 -0.72347,0.413412 -0.847493,0.387573 l -0.03101,0.09819 h -0.08268 l -0.108521,0.144694 -0.144694,0.02584 q -0.124023,0.160197 -0.346232,0.26355 -0.217041,0.09819 -0.258382,0.134358 l -0.26355,0.258383 -0.170532,0.134358 -0.170532,0.232544 -0.335897,0.273885 v 0.237712 l -0.05684,0.05168 -0.186035,0.485759 v 0.180867 q 0,0.129191 0.09819,0.217041 0.09819,0.08268 0.09819,0.186035 0,0.04134 -0.01033,0.06201 l 0.129191,0.139526 0.28422,0.15503 0.299724,0.08785 0.356567,-0.01034 0.423747,0.08268 0.06201,-0.01034 0.08785,0.02067 0.61495,-0.05168 q 0.268717,-0.103353 0.749308,-0.118856 l -0.02067,-0.04134 0.506429,-0.05168 v -0.03101 l 0.573608,-0.139526 q 0.108521,-0.103353 0.408244,-0.134359 0.299723,-0.03617 0.428914,-0.06718 l -0.02067,-0.08268 h 0.06201 v -0.04134 l 0.160197,-0.04651 -0.04651,-0.103353 0.118856,-0.129191 v -0.191203 q -0.06718,-0.03101 -0.07235,-0.05168 0.03101,-0.07752 0.03101,-0.170533 0,-0.09302 -0.03101,-0.186035 l 0.325562,-0.01033 0.09302,0.08268 h 0.09819 l 0.160197,0.191203 z"
         style="font-style:normal;font-variant:normal;font-weight:normal;font-stretch:normal;font-family:'Bradley Hand ITC';-inkscape-font-specification:'Bradley Hand ITC';stroke:#000000;stroke-width:0.1;stroke-miterlimit:4;stroke-dasharray:none;stroke-opacity:1"
         id="path841"
         inkscape:connector-curvature="0" />
      <path
         d="m 80.343413,94.488561 -0.211874,0.191203 -0.170532,-0.02067 -0.149861,0.113688 -0.113689,-0.07235 -0.413411,0.118856 -0.07752,0.144694 -0.165364,-0.134358 -0.242879,0.325561 h 0.08268 q -0.0155,0.1757 -0.139527,0.315226 h 0.02067 q 0.04651,0 0.04651,0.07752 0,0.273885 -0.06718,0.454753 l 0.05684,0.05168 q 0,0.08785 -0.03617,0.129191 -0.03101,0.04134 -0.03101,0.08268 0,0.06201 0.04134,0.201538 l -0.06201,0.05168 0.01033,0.511596 -0.09302,0.568441 h 0.02067 l -0.04134,0.170532 0.04134,0.07235 -0.02067,0.170533 0.03617,0.08785 q 0.03617,0.103352 0.03617,0.206705 0,0.05168 -0.07235,0.108521 l 0.01034,0.05168 q 0,0.108521 -0.09819,0.191203 l -0.01033,-0.10852 q -0.14467,-0.222224 -0.14467,-0.304906 v -0.403077 l -0.04651,-0.134358 0.07751,-0.06718 -0.07751,-0.04134 -0.03101,-0.170532 v -0.155029 l 0.03101,-0.01034 -0.03101,-0.118855 0.03101,-0.413412 -0.01034,-0.382405 0.07752,-0.273885 -0.06718,-0.09302 0.04651,-0.09819 v -0.656291 l 0.03101,-0.335897 -0.201538,0.07235 -0.05168,-0.06201 -0.08785,0.06201 -0.103352,-0.04134 q -0.1757,0.08785 -0.284221,0.07235 -0.10852,-0.02067 -0.149861,-0.02067 -0.07752,0 -0.139527,0.02067 l -0.413411,0.139526 -0.485759,-0.06201 -0.05168,0.02067 q -0.139526,-0.05168 -0.211873,-0.05168 -0.05684,0 -0.180868,0.04651 -0.118856,0.04651 -0.160197,0.04651 l -0.165364,-0.04134 -0.06718,0.144694 -0.180867,-0.134358 -0.26355,0.06201 -0.103353,-0.06201 -0.08785,0.08268 -0.124023,-0.0155 q -0.06201,-0.0052 -0.191203,-0.07751 l -0.01034,0.07235 -0.08268,-0.03101 q -0.201538,0 -0.351399,0.04651 -0.149862,0.04651 -0.149862,0.315226 v 0.387574 l -0.04134,0.279052 0.04134,0.186036 -0.09302,0.201538 0.09302,0.180867 -0.07235,0.465088 0.05168,0.170532 -0.02067,0.273885 0.07235,0.180868 -0.03101,0.08785 0.02067,0.1757 -0.04134,0.02067 q -0.180867,-0.02584 -0.191202,-0.19637 l -0.02067,-0.501262 q -0.211873,-0.248046 -0.211873,-0.304891 0,-0.118855 0.160197,-0.170532 l -0.07235,-0.07235 0.01033,-0.170532 -0.04134,-0.129191 -0.05684,-0.842326 v -0.268717 l -0.04134,-0.144694 -0.180867,-0.108521 -0.02067,-0.304891 0.24288,-0.160197 q 0.10852,-0.315226 0.10852,-0.527099 0,-0.05684 -0.02067,-0.160197 l 0.09302,0.04134 -0.05168,-0.103353 -0.03101,-0.392741 0.06201,-0.242879 -0.06201,-0.413411 v -0.232544 l 0.05168,-0.273885 0.191203,-0.118856 q 0.113688,0.103353 0.242879,0.139526 l 0.01034,0.170532 0.08268,0.103353 q -0.07235,0.258382 -0.07235,0.294556 0,0.08268 0.05168,0.10852 0.01034,0.03101 0.01034,0.103353 0,0.170532 -0.113689,0.816488 l 0.07235,0.170532 -0.07235,0.103353 q -0.0052,0.155029 -0.05168,0.413411 h 0.222209 l 0.113688,0.04134 0.273885,-0.04134 0.170532,0.02067 0.232544,-0.02067 0.201538,0.09819 v -0.02584 q 0,-0.07235 0.06201,-0.07235 0.04134,0 0.09818,0.04134 H 75.7287 l 0.408243,-0.02067 q 0.113688,0 0.160197,0.02067 l 0.07751,-0.09302 0.07235,0.05168 q 0.237712,0.02584 0.294556,0.04134 0.06201,-0.031 0.09819,-0.031 l 0.04134,0.01033 1.152384,-0.124024 0.465088,0.03101 -0.09302,-0.149861 0.05168,-0.06201 -0.05168,-0.232544 0.05168,-0.170532 -0.07235,-0.454753 0.07235,-0.170532 -0.211873,-0.625285 q -0.02067,-0.06201 -0.02067,-0.09302 0,-0.07752 0.06718,-0.129191 0.06718,-0.05168 0.09302,-0.05168 h 0.07235 l -0.04134,-0.191203 h 0.160197 l 0.05168,0.118856 0.191203,-0.04134 v 0.165365 l 0.124024,-0.04134 v 0.191203 l -0.07235,0.139527 0.09302,0.273885 v 0.134358 l 0.05684,0.149862 -0.07751,0.211873 0.02067,0.170533 -0.06201,0.847493 0.253215,-0.04134 0.232544,-0.0155 0.392741,-0.103353 0.180867,0.02067 0.134359,-0.02067 z m 0.26355,0 -0.170533,0.118856 q -0.07235,-0.0155 -0.07235,-0.07751 0,-0.08268 0.124024,-0.08268 0.07751,0 0.118856,0.04134 z"
         style="font-style:normal;font-variant:normal;font-weight:normal;font-stretch:normal;font-family:'Bradley Hand ITC';-inkscape-font-specification:'Bradley Hand ITC';stroke:#000000;stroke-width:0.1;stroke-miterlimit:4;stroke-dasharray:none;stroke-opacity:1"
         id="path843"
         inkscape:connector-curvature="0" />
      <path
         d="m 87.21121,92.891759 -0.05168,0.113689 -0.134359,0.02067 h -0.320394 l -0.149862,0.03617 -0.124023,-0.03617 -0.656291,0.05684 -0.222208,-0.05684 q -0.273885,0.108521 -0.392741,0.108521 H 84.84443 l -0.191203,-0.07235 q 0,0.05168 -0.07752,0.07235 -0.144694,0 -0.28422,0.04134 -0.134359,0.04134 -0.253215,0.04134 l -0.211873,-0.08268 -0.180868,0.08268 -0.02067,0.06718 h -0.09302 l -0.05684,0.103353 -0.04134,0.687297 0.04134,0.09819 -0.02067,0.113688 0.01033,0.304891 -0.03101,0.310059 v 0.09302 q 0,0.06718 -0.03101,0.103353 -0.02584,0.03101 -0.04134,0.165365 l 0.08268,0.134358 -0.02067,0.170533 -0.07235,0.05168 q 0,0.06201 0.06201,0.160197 l -0.06201,0.103353 v 0.118856 l -0.08268,0.124023 0.05168,0.299723 -0.02067,0.434082 -0.07751,0.273885 q 0.02067,0.04134 0.02067,0.06201 0,0.03101 -0.02067,0.07235 -0.0155,0.03617 -0.0052,0.07751 0.0155,0.03617 0.0155,0.06201 0,0.03101 -0.05168,0.139527 -0.05168,0.103353 -0.03617,0.129191 0.0052,0.01033 0.03617,0.165364 -0.05168,0.139527 -0.05168,0.211874 0,0.07235 0.02067,0.232544 -0.06201,0 -0.113689,-0.0155 -0.04651,-0.0155 -0.05684,-0.0155 -0.08268,0 -0.08268,-0.304891 l 0.02067,-0.160197 q 0,-0.08785 -0.02067,-0.253214 -0.02067,-0.165365 -0.02067,-0.24288 l 0.06201,-0.74414 q -0.08268,-0.139527 -0.08268,-0.15503 0,-0.05684 0.05168,-0.09819 -0.04134,-0.05168 -0.04134,-0.09302 0,-0.03101 0.06201,-0.06201 -0.04134,-0.103353 -0.04134,-0.139526 0,-0.05684 0.03617,-0.149862 0.03617,-0.09819 0.03617,-0.113688 l -0.01033,-0.170532 q 0,-0.03101 0.09819,-0.232544 -0.08785,0 -0.08785,-0.139527 0,-0.242879 0.06201,-0.273885 v -0.434082 l -0.06201,-0.211873 0.06201,-0.444418 -0.06201,-0.315226 0.06201,-0.248047 q -0.04134,-0.144694 -0.144694,-0.144694 -0.05684,0 -0.09819,0.05168 l -0.149861,0.0155 q -0.08268,0.0052 -0.165365,0.05684 l -0.129191,-0.01034 -0.124023,0.01034 v 0.03617 h -0.08785 q -0.1757,0 -0.284221,-0.06718 l -0.02067,0.06718 -0.222209,-0.06718 -0.61495,-0.02067 -0.242879,0.07235 q -0.273885,-0.237711 -0.273885,-0.315226 0,-0.02067 0.04134,-0.170532 h 0.170533 l 0.749308,0.149862 0.180867,-0.06201 0.496094,0.02067 0.465088,0.04134 0.310059,-0.118856 h 0.08268 l 0.08785,-0.242879 0.144694,0.04651 0.03101,0.103353 0.06718,-0.03101 q 0.08268,0.108521 0.242879,0.180868 l 0.170532,-0.05684 q 0.170533,0 0.294556,0.139526 l 0.06201,-0.08268 0.392741,-0.07751 0.242879,0.02067 q 0.103353,0.04651 0.191203,0.04651 h 0.05168 q 0.09819,-0.03617 0.160197,-0.03617 l 0.149862,0.02584 q 0.04651,0 0.06201,-0.03617 l 0.211874,-0.03101 0.242879,0.05684 q 0.05168,0.05168 0.144694,0.02067 0.09819,-0.03617 0.129191,-0.03617 l 0.191203,0.03617 0.527099,-0.01034 0.232544,0.04134 z"
         style="font-style:normal;font-variant:normal;font-weight:normal;font-stretch:normal;font-family:'Bradley Hand ITC';-inkscape-font-specification:'Bradley Hand ITC';stroke:#000000;stroke-width:0.1;stroke-miterlimit:4;stroke-dasharray:none;stroke-opacity:1"
         id="path845"
         inkscape:connector-curvature="0" />
      <path
         d="m 95.029856,98.183426 q -0.02584,0.03101 -0.155029,0.07235 L 94.652618,98.105914 94.36323,97.749347 94.28055,97.537474 q -0.03101,-0.201539 -0.08268,-0.341065 -0.118856,-0.134359 -0.118856,-0.578776 0,-0.07235 0.02067,-0.10852 0.02584,-0.03617 0.05684,-0.346233 l -0.10852,-0.222208 0.03101,-0.108521 -0.03101,-0.201538 0.01033,-0.232544 -0.07235,-0.07235 0.06201,-0.160197 -0.06201,-0.09302 0.06201,-0.09819 -0.07235,-0.222209 v -0.335897 l -0.08785,-0.201538 q -0.0052,-0.134359 -0.0155,-0.232544 -0.0052,-0.09818 -0.19637,-0.222209 l -0.134359,0.165365 -0.118856,0.05684 -0.356567,0.496094 -0.310059,0.37207 -0.103353,0.222209 -0.299723,0.335897 -0.397909,0.299723 -0.03617,0.1757 -0.211873,0.07751 -0.03101,0.144694 -0.242879,0.118856 -0.08268,0.201538 -0.170532,0.06201 -0.242879,0.434082 q -0.144694,0 -0.170532,0.26355 -0.04134,0.01033 -0.07235,0.01033 -0.04134,-0.09302 -0.170533,-0.273885 l 0.02067,-0.139526 -0.07235,-0.09302 0.07235,-0.09302 -0.06718,-0.07751 q -0.02584,-0.03101 -0.08268,-0.222209 l -0.144694,-0.134359 q -0.04134,-0.0155 -0.113688,-0.118855 -0.06718,-0.108521 -0.103353,-0.160197 -0.03617,-0.05168 -0.09302,-0.253215 L 89.82604,95.496251 89.624501,95.093175 89.412628,94.850296 89.340281,94.700434 89.138743,94.478226 88.92687,94.147497 q -0.180868,-0.273885 -0.284221,-0.273885 -0.07235,0 -0.139526,0.02584 -0.06201,0.02584 -0.07235,0.02584 h -0.0155 v 0.129191 q 0,0.3514 -0.09302,0.5271 l -0.222208,0.413411 0.05168,0.268718 -0.07235,0.186035 -0.211873,0.713134 -0.08268,0.232544 -0.03617,0.15503 -0.134359,0.341064 -0.170532,0.294556 0.02067,0.232544 -0.180868,0.434082 q 0,0.09302 0.09819,0.139526 -0.206705,0.253215 -0.273885,0.253215 -0.02584,0 -0.08268,-0.08268 -0.05684,-0.07751 -0.05684,-0.191202 0,-0.02067 0.04134,-0.129192 0.04134,-0.113688 0.07235,-0.268717 0.03101,-0.155029 0.08785,-0.222209 0.06201,-0.07235 0.06201,-0.07751 V 97.01555 q 0,-0.222209 0.211873,-0.325562 v -0.170532 l 0.06201,-0.242879 q -0.01033,-0.02067 -0.01033,-0.06201 0,-0.05168 0.05684,-0.211873 0.07235,-0.08785 0.07235,-0.191203 v -0.232544 l 0.09302,-0.170532 0.191203,-0.635621 -0.05168,-0.28422 0.09302,-0.07235 0.03617,-0.129191 0.01034,-0.454753 q 0.05168,-0.28422 0.05168,-0.403076 0,-0.113688 -0.139526,-0.392741 l 0.08785,-0.175699 -0.04651,-0.07752 q 0.04651,-0.02067 0.04651,-0.09302 0.155029,0 0.19637,-0.07235 l 0.09819,0.01034 0.124023,0.09302 v 0.09302 l 0.118856,0.07751 0.03101,0.24288 0.09819,0.08268 0.04134,0.149862 h 0.05168 q -0.02067,0.04134 -0.02067,0.07235 0,0.09302 0.170532,0.10852 0.06718,0.03101 0.144694,0.113688 l 0.02067,0.139527 0.118855,0.124023 0.07235,0.248047 0.475424,0.506429 0.08785,0.28422 0.160196,0.129191 0.144694,0.413412 0.361735,0.645955 q 0.113689,0.191203 0.273886,0.335897 l 0.02067,-0.139526 h 0.191203 l 0.118856,-0.26355 0.222208,-0.155029 q 0.05684,-0.08268 0.191203,-0.211874 v -0.08785 q 0.113688,-0.07751 0.232544,-0.139526 0.124024,-0.06718 0.124024,-0.08268 0,-0.01034 -0.01034,-0.01034 0,-0.07235 0.06201,-0.170532 h 0.10852 l 0.09302,-0.134359 q 0.03617,0.05168 0.05684,0.05168 0.01033,0 0.01033,-0.03101 0,-0.01033 -0.02584,-0.191203 0.232544,-0.315226 0.413412,-0.315226 v -0.129191 q 0,-0.108521 0.180867,-0.160197 l 0.06201,0.02067 0.02584,-0.06201 0.222209,-0.3514 0.02067,-0.07235 h 0.07235 q 0.15503,-0.165365 0.232544,-0.392741 0.06718,-0.05168 0.160197,-0.05168 0.03617,0 0.05168,0.03101 l 0.07235,-0.15503 -0.04134,-0.320394 -0.06201,-0.149861 q 0.113688,-0.165365 0.149861,-0.335897 0.113689,0.0155 0.165365,0.04134 0.02584,0.03617 0.139526,0.05168 l 0.02067,0.170532 q 0.1757,0.149861 0.180867,0.165364 0.01034,0.0155 0.01034,0.06718 l -0.01034,0.08785 v 0.28422 l 0.06201,0.09302 -0.06201,0.05684 0.06201,0.02067 -0.02067,0.113688 0.04134,0.05168 0.03101,0.222208 0.05684,0.04651 -0.108521,0.144694 0.05168,0.02067 -0.03101,0.222208 0.07751,0.191203 -0.02584,0.242879 0.09819,0.382406 q 0.02584,0.113688 0.05168,0.315226 -0.06201,0.129191 -0.124024,0.191203 l 0.06201,0.129191 q 0.04134,0.02584 0.04134,0.05168 0,0.02584 -0.04134,0.103352 -0.03617,0.07235 -0.05168,0.129192 l 0.08268,0.07751 -0.03101,0.578776 0.103353,0.361735 V 97.5168 l 0.07751,0.08268 q 0.06201,0.15503 0.103352,0.211874 0.04134,0.05684 0.160197,0.186035 0.124024,0.124023 0.134359,0.186035 z"
         style="font-style:normal;font-variant:normal;font-weight:normal;font-stretch:normal;font-family:'Bradley Hand ITC';-inkscape-font-specification:'Bradley Hand ITC';stroke:#000000;stroke-width:0.1;stroke-miterlimit:4;stroke-dasharray:none;stroke-opacity:1"
         id="path847"
         inkscape:connector-curvature="0" />
      <path
         d="m 102.53327,95.165522 -0.0982,0.232544 -0.031,0.320394 -0.093,0.09302 -0.10852,0.341064 q -0.0155,0.06718 -0.031,0.09819 -0.0155,0.03101 -0.0672,0.05168 l -0.11369,0.04651 -0.62528,0.501261 -0.1447,0.07235 q -0.0672,0.03101 -0.21187,0.170532 v -0.06201 l -0.43408,0.335897 -0.19121,0.08268 -0.454749,0.248046 q -0.09819,-0.04651 -0.191203,-0.04651 -0.07235,0 -0.113688,0.05168 -0.03617,0.05168 -0.07752,0.06718 l -0.09302,-0.02067 -0.170533,0.160197 -0.08785,-0.04651 -0.04134,0.05684 H 98.97275 l -0.09302,0.09302 -0.315226,-0.02067 -0.511597,0.09302 q -0.03101,-0.01034 -0.09302,-0.01034 l -0.160197,0.02067 -0.180868,-0.03101 -0.04134,-0.04134 -0.444417,-0.07235 -0.211874,-0.108521 h -0.09302 v -0.201538 l -0.149862,0.05684 -0.07235,-0.103352 q -0.04651,-0.05684 -0.103353,-0.08785 l -0.165364,-0.07752 q -0.08268,-0.232544 -0.09302,-0.537435 l -0.05168,-0.07235 -0.02067,-0.423747 0.144694,-0.454752 -0.02067,-0.222209 0.09819,-0.08785 -0.07752,-0.180867 0.180868,-0.144694 V 95.15518 l 0.06201,-0.139526 v -0.113688 l 0.07752,-0.129192 -0.03101,-0.04134 0.05168,-0.03101 0.222208,-0.506429 0.413412,-0.65629 q 0.09302,-0.03101 0.134358,-0.108521 0.04134,-0.08268 0.222209,-0.211873 l -0.02067,-0.09302 h 0.129191 l -0.03101,-0.06201 q 0.118856,-0.124024 0.325561,-0.191203 l 0.07752,-0.08785 h -0.01033 q 0,-0.0052 0.201538,-0.03101 l 0.485758,-0.06201 0.304891,0.04134 0.232544,-0.01033 h 0.273885 q 0.108521,0.02067 0.149862,0.02067 0.144694,0 0.222208,-0.09302 0.05168,0.05168 0.118861,0.05168 0.031,0 0.0517,-0.01034 0.005,0.103353 0.10336,0.103353 0.0413,0.04651 0.23254,0.06718 l 0.0775,0.07235 0.15503,0.02067 h 0.20153 l 0.28939,0.149862 h -0.0672 l 0.19637,0.139526 q 0.0362,0.02584 0.10336,0.144694 l 0.15502,0.07235 0.0775,0.129191 0.18087,0.07235 0.3514,0.583944 q 0.0362,0.05684 0.12402,0.294556 l 0.13953,0.377237 q 0.0517,0.134359 0.0517,0.1757 z m -0.34106,-0.273885 -0.093,-0.242879 0.0103,-0.07752 q 0,-0.05168 -0.0258,-0.113688 -0.0258,-0.06201 -0.21704,-0.180867 l -0.0775,-0.201538 -0.062,-0.03101 -0.031,-0.118856 -0.29972,-0.315226 -0.26355,-0.222209 -0.0827,0.03101 -0.38241,-0.242879 q -0.0517,-0.03101 -0.2222,-0.05684 -0.16537,-0.02584 -0.25322,-0.08268 0,0.01034 -0.031,0.01034 -0.0207,0 -0.16019,-0.02067 l -0.05168,0.03617 -0.160197,-0.05684 -0.103352,0.05684 q -0.139527,-0.04651 -0.191203,-0.04651 -0.03101,0 -0.09302,0.02584 -0.05684,0.02067 -0.08785,0.02067 -0.05168,0 -0.07235,-0.02584 -0.10852,0.05684 -0.1757,0.134359 -0.06201,0.07235 -0.206705,0.134359 l -0.149862,-0.03617 -0.144694,0.09819 -0.170532,-0.02067 -0.06201,0.02584 q -0.03101,0.0155 -0.05684,0.04134 -0.02584,0.02067 -0.06718,0.05168 -0.03617,0.03101 -0.09302,0.07235 -0.05168,0.03617 -0.118856,0.08268 -0.06201,0.04651 -0.139526,0.09302 -0.03617,0.02584 -0.139526,0.211873 l 0.01034,0.149862 -0.191203,0.08268 q -0.03101,0.0155 -0.129191,0.129191 -0.07752,0.1757 -0.191203,0.28422 v 0.129191 q -0.124023,0.05168 -0.144694,0.129192 l -0.09819,0.30489 -0.1757,0.113689 q -0.03617,0.645955 -0.113688,0.749308 -0.07235,0.103353 -0.103353,0.191203 -0.02584,0.08268 -0.04134,0.186035 -0.01034,0.09819 -0.07235,0.28422 l 0.06201,0.124024 0.03101,0.191202 0.09819,0.129191 q 0.02067,0.03101 0.03101,0.07752 l 0.02067,0.124024 q 0.201538,0.227376 0.501261,0.320393 0.299724,0.09302 0.346233,0.08268 l 0.341064,-0.08785 0.07235,0.07751 h 0.170532 v 0.07235 H 98.3062 l 0.04651,-0.129191 0.165364,-0.02067 0.423747,0.05168 q 0.05684,-0.103353 0.129191,-0.103353 l 0.04134,0.01034 q 0.232544,-0.149862 0.341065,-0.149862 h 0.04134 l 0.211873,-0.134359 q 0.04134,-0.02067 0.222209,-0.03101 l 0.134361,-0.118855 q 0.38241,-0.01034 0.43925,-0.05168 0.0568,-0.04134 0.0982,-0.08785 0.0465,-0.04651 0.20671,-0.08268 l 0.0724,-0.201538 0.031,0.01033 0.0207,-0.07235 q 0.12403,-0.03617 0.20154,-0.139526 l 0.0982,0.03101 0.0517,-0.103353 0.17054,-0.129191 0.28422,-0.315226 0.17053,-0.06201 0.0827,-0.180868 0.13953,-0.09819 -0.031,-0.191203 0.0724,-0.165364 -0.0413,-0.310059 z"
         style="font-style:normal;font-variant:normal;font-weight:normal;font-stretch:normal;font-family:'Bradley Hand ITC';-inkscape-font-specification:'Bradley Hand ITC';stroke:#000000;stroke-width:0.1;stroke-miterlimit:4;stroke-dasharray:none;stroke-opacity:1"
         id="path849"
         inkscape:connector-curvature="0" />
      <path
         d="m 110.71365,98.105911 -0.031,0.248047 -0.27389,0.09302 -0.031,0.103353 -0.14987,-0.05168 -0.18086,0.118856 -0.11369,0.01033 q -0.25322,0 -0.3514,-0.113688 -0.0982,-0.10852 -0.11369,-0.10852 l -0.0568,0.04134 q -0.22221,-0.118856 -0.35657,-0.361735 l 0.0413,-0.02067 -0.21187,-0.242879 -0.0724,-0.28422 -0.12919,-0.201539 -0.0724,-0.273885 -0.0982,-0.201538 -0.1602,-0.976684 -0.0103,-0.413412 q -0.0723,-0.155029 -0.093,-0.304891 -0.0103,-0.01033 -0.0413,-0.01033 -0.0465,0 -0.0517,0.01033 l -0.22221,0.304891 -0.21187,0.160197 q -0.005,0.05684 -0.19121,0.253215 l -0.10335,0.06718 q -0.0465,0.03101 -0.21704,0.211873 0,0.103353 -0.11369,0.134359 l -0.12919,0.149862 -0.17053,0.07235 -0.1447,0.201538 -0.81648,0.63562 -0.36174,0.222209 -0.12919,0.10852 q -0.0827,0.06201 -0.13953,0.07752 l -0.1757,0.05684 -0.0207,0.118856 -0.0413,0.01033 0.0207,0.04134 h -0.24288 l -0.0723,0.03101 0.0517,0.04134 -0.2222,0.02067 Q 104.33684,97.894033 104.28,97.863027 v -0.191203 l -0.093,-0.09302 -0.10852,-0.645956 -0.031,-0.08268 -0.031,-0.423747 0.062,-0.211873 -0.031,-0.160197 0.031,-0.170532 -0.0413,-0.54777 -0.0413,-0.09819 q 0.031,-0.04651 0.093,-0.08785 0.062,-0.04651 0.062,-0.134358 l -0.0724,-0.09302 0.0413,-0.222209 -0.0827,-0.170532 v -0.113688 l 0.0827,-0.139526 -0.0413,-0.201538 0.0724,-0.315227 -0.0414,-0.413411 0.0414,-0.242879 -0.0414,-0.04134 h 0.0775 q 0,-0.129191 0.0517,-0.129191 h 0.031 q 0,-0.01034 -0.031,-0.04134 0.31522,0.05168 0.3824,0.356568 l -0.0775,0.118856 -0.12403,0.63562 q -0.0207,0.124023 -0.0207,0.180867 0,0.09818 0.10336,0.325562 -0.13953,0.666626 -0.13953,1.00769 0,0.09302 0.005,0.144694 0.005,0.05168 0.0827,0.149862 -0.0362,0.144694 -0.0413,0.465088 l -0.0775,0.118855 0.11886,0.09302 -0.0982,0.07235 q -0.031,0.07752 -0.031,0.149862 0,0.129191 0.0568,0.242879 0.0569,0.113688 0.0879,0.294556 0.031,0.175699 0.10852,0.258382 h 0.17053 l 0.24288,0.01033 0.0207,-0.06718 q 0.0672,-0.02067 0.0775,-0.02067 0.0258,0 0.0517,0.02067 v -0.01034 q 0,-0.05168 0.0723,-0.07235 l 0.0207,-0.149861 0.19121,0.04651 0.0775,-0.160197 0.16536,-0.07235 q 0.0362,-0.09819 0.11886,-0.09819 0.031,0 0.093,0.02067 l 0.0207,-0.103353 q 0.19637,-0.134359 0.29972,-0.149862 v -0.08268 l 0.11369,-0.02067 0.0517,-0.05684 q 0.093,0 0.12402,-0.02584 0.031,-0.03101 0.0672,-0.19637 l 0.29972,-0.15503 0.0413,-0.129191 0.0724,0.02067 0.0775,-0.180868 0.18603,-0.08268 0.0362,-0.07235 0.11369,-0.08785 V 95.49623 l 0.093,-0.04651 0.10852,-0.144694 0.17053,-0.07751 0.0207,-0.09302 h 0.062 l -0.0413,-0.04134 q 0.0672,-0.118855 0.18087,-0.118855 h 0.031 v -0.124024 l 0.0723,-0.03101 0.23255,-0.45992 q 0.031,-0.113688 0.0879,-0.28422 l 0.0413,-0.24288 0.062,-0.129191 q 0.031,-0.06201 0.062,-0.242879 l 0.0155,-0.186035 q 0.0103,-0.09819 0.062,-0.237712 l 0.10335,-0.08268 0.1602,0.08268 q 0.0775,0.103353 0.22221,0.211874 l -0.0517,0.09819 0.0207,0.191203 q 0,0.124023 -0.14986,0.124023 l -0.0413,0.04134 v 0.09819 l -0.0724,0.124023 v 0.191203 l -0.0775,0.201538 0.0207,0.26355 q -0.10336,0.144694 -0.10336,0.180867 0,0.06718 0.062,0.124024 0.062,0.05168 0.0775,0.08785 l -0.0672,0.02067 -0.062,0.139526 0.062,0.170533 -0.031,0.325561 0.0982,0.160197 h -0.0362 q -0.0724,0 -0.0517,0.06718 0.0517,0.186035 0.0517,0.387573 0.0775,0.07235 0.0775,0.129191 0,0.02584 -0.0413,0.05168 l 0.0724,0.232544 q 0.0723,0.341065 0.26355,0.847494 l 0.11885,0.165364 q 0.062,0.15503 0.1447,0.237712 l 0.29972,0.28422 0.38757,0.08268 0.0465,-0.08268 0.10335,0.05168 q 0.0724,-0.07235 0.1292,-0.08268 0.0465,-0.07751 0.14469,-0.07751 z"
         style="font-style:normal;font-variant:normal;font-weight:normal;font-stretch:normal;font-family:'Bradley Hand ITC';-inkscape-font-specification:'Bradley Hand ITC';stroke:#000000;stroke-width:0.1;stroke-miterlimit:4;stroke-dasharray:none;stroke-opacity:1"
         id="path851"
         inkscape:connector-curvature="0" />
      <path
         d="m 116.90449,95.832148 0.0827,0.129191 0.36173,0.284221 q 0.1602,0.134358 0.1602,0.485758 l 0.0103,0.160197 q 0,0.08268 -0.12919,0.26355 -0.1292,0.1757 -0.31523,0.253214 -0.031,0.06718 -0.12919,0.06718 h -0.031 q -0.14469,0.144694 -0.37207,0.144694 -0.0672,0.08785 -0.18603,0.149861 l -0.22221,-0.02067 -0.1912,0.170532 -0.0879,-0.05684 -0.13436,0.04651 q -0.22738,0.01033 -0.24288,0.04134 l -0.33073,-0.03101 q -0.21704,0.09302 -0.31523,0.09302 l -0.28939,-0.02067 -0.20153,0.09302 -0.11369,-0.02067 q -0.031,-0.03101 -0.062,-0.03101 -0.0517,0 -0.0879,0.05168 h -0.3359 l -0.0982,-0.06201 -0.0723,0.06201 -0.50643,-0.02067 -0.24288,-0.04134 q -0.10852,0.05168 -0.17053,0.05168 -0.11369,0 -0.29973,-0.134358 l -0.1757,0.07235 -0.0568,-0.06201 h -0.11369 q -0.19637,0 -0.37207,-0.06201 -0.1757,-0.06718 -0.22221,-0.06718 -0.0207,0 -0.062,0.02067 l -0.37207,-0.263549 -0.23254,-0.06201 q -0.24288,-0.304891 -0.24288,-0.485759 0,-0.06201 0.0723,-0.299723 l 0.0775,0.01033 q 0.0982,0 0.12402,-0.124023 l 0.1602,-0.02067 -0.0724,-0.03617 0.11369,-0.01033 q 0.0879,-0.103353 0.12919,-0.103353 0.11369,0 0.11369,0.191203 -0.13953,0.03101 -0.24288,0.144694 0,0.04134 -0.0827,0.09302 -0.0827,0.04651 -0.11886,0.07751 l 0.031,0.06201 v 0.180867 q 0.1757,0.09819 0.32039,0.279053 l 0.12919,0.02067 q 0.062,0.01034 0.20671,0.103353 l 0.1912,-0.02067 -0.0207,-0.06201 0.28422,0.02067 -0.062,0.04134 0.23254,0.04134 0.031,0.05168 h 0.49093 v 0.03617 q 0.0672,-0.05684 0.14469,-0.05684 0.0413,0 0.0982,0.02584 0.062,0.02067 0.23254,0.03101 l 0.0207,0.06201 0.14469,0.01034 h 0.1602 l 0.10852,0.04134 -0.0465,-0.04134 q 0.1447,-0.06201 0.23771,-0.06201 0.0517,0 0.10336,0.05168 0.093,-0.06201 0.22221,-0.06201 0.11368,0 0.25321,0.04134 0.0672,-0.05168 0.14986,-0.05168 0.0775,0 0.1602,0.05168 l 0.37724,-0.108521 0.0775,-0.103352 0.32556,0.04134 0.26355,-0.06201 -0.0413,-0.01033 q 0.0207,-0.02067 0.36174,-0.03101 0.031,-0.03617 0.0517,-0.03617 l 0.0724,0.01034 0.26872,-0.113689 0.0517,0.02067 v -0.05168 h 0.18087 v -0.02067 q 0,-0.09819 0.16537,-0.09819 h 0.0775 l 0.0413,-0.04134 -0.031,-0.04134 q 0.0827,-0.08785 0.12402,-0.08785 0.11885,0 0.11885,-0.08268 0.13436,-0.201538 0.13436,-0.273885 0,-0.248047 -0.81132,-0.583943 l -0.46508,-0.191203 q -0.18087,0 -0.5116,-0.124024 -0.14469,-0.118855 -0.35657,-0.118855 -0.13436,0 -0.20154,0.02067 l -0.062,-0.08268 -0.14986,0.06201 -0.11886,-0.134359 -0.16536,0.04134 -0.29972,-0.149862 h -0.19121 l -0.12402,-0.09302 h -0.17053 l -0.0724,-0.108521 -0.0207,0.05168 h -0.11886 l -0.14986,-0.1757 q -0.50643,-0.0052 -0.65629,-0.180868 l -0.11369,0.03101 -0.0723,-0.170532 -0.17053,-0.180868 q -0.13953,-0.335896 -0.21188,-0.423746 l 0.0413,-0.315227 0.17054,-0.222208 q 0.0982,-0.04134 0.14469,-0.191203 0.1602,-0.103353 0.24805,-0.113688 0.0258,0.04134 0.062,0.04134 l 0.10335,-0.149862 0.0465,0.07235 0.0207,-0.07235 0.38757,-0.134358 -0.11368,-0.02584 0.10335,0.01034 q 0.18087,0 0.22221,-0.113688 0.24288,0 0.5426,-0.07235 l -0.0517,-0.04651 q 0.0258,-0.02067 0.093,-0.02067 0.0775,0 0.10335,0.02067 l -0.031,-0.03101 0.0879,0.01034 q 0.10335,0 0.13436,-0.09302 h 0.0568 l 0.12402,-0.01034 q 0.031,0 0.031,0.01034 v 0.04134 q 0.0724,-0.05168 0.13953,-0.05168 h 0.062 l 0.62528,-0.06201 0.031,0.06201 v -0.07235 l 0.13952,-0.08785 q 0.0517,0.108521 0.21188,0.108521 h 0.0517 q 0.25322,0 0.34107,0.05168 l -0.0775,0.01034 q 0.20154,0 0.57878,0.124023 0.37724,0.118856 0.37724,0.392741 0,0.201538 -0.26872,0.242879 l -0.0413,-0.09302 -0.34623,-0.118856 h -0.14986 l -0.11886,-0.144694 -0.22221,0.03101 -0.0724,-0.07235 -0.093,0.113688 -0.14987,-0.113688 -0.32039,0.04134 -0.35657,-0.09819 -0.0982,0.05684 q -0.3359,0.0155 -0.39791,0.06201 -0.0207,-0.01033 -0.0775,-0.01033 -0.0775,0 -0.1447,0.08268 l -0.24805,0.02067 -0.65629,0.242879 -0.16536,-0.04134 -0.24288,0.191203 h -0.13953 l -0.10335,0.149861 -0.26872,0.191203 q -0.0413,0.02067 -0.0413,0.04134 v 0.01034 q 0.0517,0.170532 0.062,0.28422 l 0.10852,0.05168 0.0517,0.108521 0.1602,0.04134 0.11885,0.08268 q 0.0517,0.03617 0.29456,0.129191 l 0.0207,0.05168 h 0.24288 l 0.31523,0.211873 0.12919,-0.04134 q 0.11885,0.03617 0.24804,0.124024 0.13436,0.08785 0.18604,0.08785 0.0465,0 0.11369,-0.04134 v 0.07235 l 0.36173,0.03101 0.10852,0.06718 v -0.03617 h 0.0724 l 0.1602,0.108521 q 0.28422,0 0.38757,0.06201 0.062,-0.01033 0.1602,-0.01033 0.13435,0 0.23254,0.09819 0.10335,0.09302 0.14986,0.09302 h 0.0207 l 0.11369,-0.03101 0.0775,0.03101 h 0.14469 l 0.28939,0.211873 z"
         style="font-style:normal;font-variant:normal;font-weight:normal;font-stretch:normal;font-family:'Bradley Hand ITC';-inkscape-font-specification:'Bradley Hand ITC';stroke:#000000;stroke-width:0.1;stroke-miterlimit:4;stroke-dasharray:none;stroke-opacity:1"
         id="path853"
         inkscape:connector-curvature="0" />
      <path
         d="m 124.15986,92.571366 q -0.0155,0.07751 -0.0517,0.118855 h -0.11369 l -0.0775,0.05168 -0.14469,-0.05168 -0.17054,0.01034 q -0.12402,0 -0.14986,-0.03617 -0.0207,-0.03617 -0.0724,-0.03617 -0.0413,0 -0.13952,0.06201 -0.0672,-0.04134 -0.13436,-0.04134 -0.0672,0 -0.21187,0.05684 -0.13953,0.05684 -0.20154,0.05684 -0.0517,0 -0.1447,-0.01033 -0.093,-0.01033 -0.14469,-0.01033 -0.0672,0 -0.0827,0.06201 -0.0827,-0.06201 -0.17053,-0.06201 -0.14987,0 -0.3049,0.129191 l -0.10852,-0.05684 -0.093,0.05684 -0.24288,-0.07751 -0.17054,0.09818 h -0.1912 q -0.17053,0.04134 -0.26872,0.06718 -0.0982,0.02067 -0.25838,0.103353 l -0.0982,-0.06718 -0.18604,0.149862 -0.1912,-0.01033 -0.13953,0.253214 0.0517,0.201538 q -0.10335,0.02584 -0.10335,0.273885 l 0.0103,0.08785 -0.0103,0.222209 0.031,0.04134 -0.0723,0.06201 0.0413,0.06201 q -0.0775,0.165365 -0.0775,0.289388 0,0.232544 0.27905,0.232544 0.0414,0 0.1292,-0.02584 0.093,-0.02584 0.18603,0 0.093,0.02584 0.17053,0.02584 l 0.1602,-0.06718 0.16536,0.05684 0.10853,-0.03101 0.10335,0.01034 0.16019,-0.03617 0.093,0.02584 h 0.0258 q 0.062,0 0.18604,-0.06718 0.093,0.04651 0.21704,0.03617 0.12919,-0.01033 0.18603,-0.02584 l 0.13953,-0.03101 0.23254,0.04134 q 0.031,0 0.062,-0.06201 0.26355,0.05168 0.3204,0.05168 l 0.11369,-0.01033 0.36173,0.02067 0.1912,-0.04134 q 0.0155,-0.06201 0.12403,-0.06201 l 0.24288,0.03101 0.0982,-0.02067 0.13436,0.05168 0.13953,-0.03101 -0.031,0.129192 q -0.18603,0.07235 -0.27388,0.07235 -0.0258,0 -0.11369,-0.02067 -0.0827,-0.02584 -0.15503,-0.03101 l -0.27389,0.134359 -0.23254,-0.02067 -0.13436,0.05168 -0.0982,-0.02067 -0.17054,0.09819 -0.11368,-0.03101 -0.42375,0.01034 q -0.0724,0 -0.13953,0.06201 l -0.14469,-0.04134 -0.0775,0.07235 -0.13436,-0.04134 -0.0775,0.07235 -0.20154,-0.09302 -0.14469,0.09302 -0.17053,-0.04134 q -0.0207,-0.01033 -0.0827,-0.01033 -0.0775,0 -0.21704,0.04134 l -0.12402,0.04134 -0.38241,0.03617 -0.0827,-0.04651 q -0.0568,0.04134 -0.32039,0.08785 l -0.0827,0.201538 0.0982,0.54777 -0.0568,0.07235 0.0672,0.170532 -0.0103,0.191203 0.0362,0.05168 q 0.0155,0.02067 0.0568,0.310059 l 0.093,0.103353 -0.0517,0.180867 0.10852,-0.03101 0.1912,0.294556 q 0.39791,0.310059 0.69763,0.310059 l 0.19121,0.03101 q 0.0517,0 0.22221,-0.04134 l 0.0413,-0.05684 h 0.093 q 0.10852,0 0.1447,0 0.0413,-0.0052 0.22737,-0.124023 0.1447,0 0.17054,-0.04134 l 0.11368,-0.03101 q 0.062,-0.0155 0.11886,-0.05684 l 0.14469,-0.113688 q 0.062,-0.08785 0.1602,-0.170533 l 0.13953,-0.01033 0.26355,-0.232544 q 0.32039,-0.09302 0.3824,-0.341064 l 0.0724,0.04134 0.031,-0.165365 0.13952,-0.01033 0.0207,-0.160197 h 0.031 q 0.0982,0 0.13953,0.124024 l -0.36174,0.470255 -0.12919,0.03101 q -0.18604,0.28422 -0.25322,0.325561 l -0.26355,0.180868 -0.17053,0.160197 -0.0723,-0.01033 -0.1292,0.134358 -0.48575,0.201538 -0.11369,0.149862 -0.17053,-0.05168 -0.0517,0.08268 -0.0465,-0.01033 -0.0827,0.07235 -0.28422,-0.06201 -0.3514,0.160197 -0.25322,-0.09819 -0.43408,-0.222209 q -0.18603,-0.09819 -0.3359,-0.299723 -0.14469,-0.201538 -0.29972,-0.645956 -0.14986,-0.449585 -0.14986,-0.490926 l 0.0362,-0.149861 -0.0775,-0.201538 0.0775,-0.09302 -0.0982,-0.573608 q -0.13953,-0.1757 -0.1602,-0.196371 -0.0207,-0.02584 -0.0207,-0.10852 0,-0.191203 0.0879,-0.232544 0.093,-0.04651 0.093,-0.05168 v -0.06718 q 0,-0.07235 0.0982,-0.09302 l 0.031,-0.149861 -0.031,-0.06201 v -0.299723 l -0.0362,-0.124024 0.11886,-0.320394 q 0.0517,-0.19637 0.0827,-0.28422 l -0.13436,-0.170532 -0.23254,0.02067 h -0.0207 q -0.0568,0 -0.10335,-0.04134 -0.0465,-0.04651 -0.0465,-0.103353 0,-0.09819 0.13953,-0.253214 0.0517,-0.02067 0.0724,-0.05684 0.18603,-0.07235 0.21187,-0.07235 0.0362,0 0.0724,0.05168 0.031,-0.07235 0.0878,-0.07235 0.15503,0 0.15503,-0.09302 0,-0.03101 -0.031,-0.07751 l 0.3514,0.02067 0.062,0.118855 q 0.16537,-0.118855 0.34107,-0.118855 l 0.0723,0.01033 0.22221,-0.05168 q 0.0827,0 0.21188,-0.07235 v 0.07235 q 0.093,-0.08268 0.26354,-0.08268 l 0.18087,0.01033 h 0.031 l 1.00769,-0.09819 0.23254,0.09819 0.0724,-0.129191 q 0.0258,0.07752 0.0827,0.07752 0.0155,0 0.0982,-0.02584 l 0.11369,0.06718 0.0775,-0.06718 0.1912,0.07751 0.12403,-0.03101 0.062,0.05168 0.34106,-0.03101 0.0517,0.03101 q 0.25321,0.05684 0.26355,0.09302 z"
         style="font-style:normal;font-variant:normal;font-weight:normal;font-stretch:normal;font-family:'Bradley Hand ITC';-inkscape-font-specification:'Bradley Hand ITC';stroke:#000000;stroke-width:0.1;stroke-miterlimit:4;stroke-dasharray:none;stroke-opacity:1"
         id="path855"
         inkscape:connector-curvature="0" />
    </g>
    <flowRoot
       xml:space="preserve"
       id="flowRoot829"
       style="font-style:normal;font-weight:normal;font-size:40px;line-height:1.25;font-family:sans-serif;letter-spacing:0px;word-spacing:0px;fill:#000000;fill-opacity:1;stroke:none"
       transform="scale(0.26458333)"><flowRegion
         id="flowRegion831"><rect
           id="rect833"
           width="381.42856"
           height="180"
           x="161.42857"
           y="289.66254" /></flowRegion><flowPara
         id="flowPara835"></flowPara></flowRoot>  </g>
</svg>
