<?xml version="1.0" encoding="UTF-8" standalone="no"?>
<!-- Created with Inkscape (http://www.inkscape.org/) -->

<svg
   xmlns:dc="http://purl.org/dc/elements/1.1/"
   xmlns:cc="http://creativecommons.org/ns#"
   xmlns:rdf="http://www.w3.org/1999/02/22-rdf-syntax-ns#"
   xmlns:svg="http://www.w3.org/2000/svg"
   xmlns="http://www.w3.org/2000/svg"
   xmlns:sodipodi="http://sodipodi.sourceforge.net/DTD/sodipodi-0.dtd"
   xmlns:inkscape="http://www.inkscape.org/namespaces/inkscape"
   width="112.02624mm"
   height="12.790951mm"
   viewBox="0 0 112.02624 12.790951"
   version="1.1"
   id="svg8"
   inkscape:version="0.92.4 (5da689c313, 2019-01-14)"
   sodipodi:docname="nm_text2.svg">
  <defs
     id="defs2" />
  <sodipodi:namedview
     id="base"
     pagecolor="#ffffff"
     bordercolor="#666666"
     borderopacity="1.0"
     inkscape:pageopacity="0.0"
     inkscape:pageshadow="2"
     inkscape:zoom="2.8"
     inkscape:cx="158.0394"
     inkscape:cy="-5.2792306"
     inkscape:document-units="mm"
     inkscape:current-layer="layer1"
     showgrid="false"
     inkscape:window-width="1920"
     inkscape:window-height="1001"
     inkscape:window-x="-9"
     inkscape:window-y="-9"
     inkscape:window-maximized="1" />
  <metadata
     id="metadata5">
    <rdf:RDF>
      <cc:Work
         rdf:about="">
        <dc:format>image/svg+xml</dc:format>
        <dc:type
           rdf:resource="http://purl.org/dc/dcmitype/StillImage" />
        <dc:title />
      </cc:Work>
    </rdf:RDF>
  </metadata>
  <g
     inkscape:label="Layer 1"
     inkscape:groupmode="layer"
     id="layer1"
     transform="translate(-46.984728,-103.12187)">
    <g
       aria-label="NIGHTMOUSE"
       transform="scale(0.26458333)"
       style="font-style:normal;font-weight:normal;font-size:40px;line-height:1.25;font-family:sans-serif;letter-spacing:0px;word-spacing:0px;fill:#000000;fill-opacity:1;stroke:none"
       id="flowRoot815">
      <path
         d="m 217.39258,391.3457 h 8.90625 v 0.46875 q -2.03125,0.0625 -2.8125,0.875 -0.78125,0.78125 -0.78125,3.34375 v 41.90625 L 185.98633,398.8457 v 34.0625 q 0,1.625 0.25,2.40625 0.25,0.78125 0.71875,1.0625 0.46875,0.28125 2.34375,0.5625 v 0.4375 h -8.84375 v -0.4375 q 2.375,0 2.9375,-0.84375 0.59375,-0.84375 0.59375,-4.03125 V 400.9082 q 0,-4.09375 -1.15625,-6.6875 -1.125,-2.59375 -5.25,-2.40625 v -0.46875 h 8.65625 l 34.5,36.75 v -32.5 q 0,-2.625 -0.9375,-3.1875 -0.9375,-0.59375 -2.40625,-0.59375 z"
         style="font-style:normal;font-variant:normal;font-weight:normal;font-stretch:normal;font-size:64px;font-family:'Felix Titling';-inkscape-font-specification:'Felix Titling'"
         id="path833" />
      <path
         d="m 242.98633,391.3457 v 0.46875 q -0.90625,-0.0937 -2.03125,0.28125 -1.09375,0.375 -1.3125,1.09375 -0.1875,0.71875 -0.1875,3.40625 v 35.34375 q 0,2.875 0.21875,3.53125 0.25,0.625 0.90625,1.0625 0.6875,0.40625 2.40625,0.40625 v 0.4375 h -12.28125 v -0.4375 q 2.3125,0 2.875,-0.875 0.5625,-0.90625 0.5625,-4.0625 v -35 q 0,-3.28125 -0.625,-4.28125 -0.625,-1.03125 -2.8125,-0.90625 v -0.46875 z"
         style="font-style:normal;font-variant:normal;font-weight:normal;font-stretch:normal;font-size:64px;font-family:'Felix Titling';-inkscape-font-specification:'Felix Titling'"
         id="path835" />
      <path
         d="m 292.70508,436.93945 v 0.4375 h -18.5625 q -5.34375,0 -9.375,-1.15625 -4,-1.15625 -8.1875,-4.375 -4.15625,-3.25 -6.75,-8.0625 -2.5625,-4.8125 -2.5625,-9.84375 0,-5.5 3.21875,-10.96875 3.25,-5.46875 9.21875,-8.875 5.96875,-3.4375 13.53125,-3.4375 6.78125,0 14.34375,3 l 1.90625,5.3125 h -0.4375 q -2.40625,-3.0625 -6.59375,-5.0625 -4.15625,-2.03125 -9.28125,-2.03125 -8.90625,0 -14.59375,6.71875 -5.6875,6.6875 -5.6875,16.625 0,4.125 0.9375,7.375 0.9375,3.21875 3.5,6.375 2.59375,3.125 5.53125,4.625 2.96875,1.46875 6.625,2.0625 3.65625,0.5625 5.8125,0.5 l 2.46875,-0.0625 q 4.1875,-0.15625 5.21875,-0.78125 1.0625,-0.625 1.0625,-3.1875 v -6.96875 q 0,-2.03125 -0.84375,-2.71875 -0.84375,-0.71875 -2.40625,-0.625 v -0.4375 h 11.90625 v 0.4375 q -2,0 -2.6875,0.78125 -0.65625,0.78125 -0.65625,3 v 7.25 q 0,2.1875 0.5625,3.15625 0.59375,0.9375 2.125,0.9375 z"
         style="font-style:normal;font-variant:normal;font-weight:normal;font-stretch:normal;font-size:64px;font-family:'Felix Titling';-inkscape-font-specification:'Felix Titling'"
         id="path837" />
      <path
         d="m 330.04883,414.4082 h -25.28125 v 17.71875 q 0,2.5 0.21875,3.1875 0.25,0.6875 0.875,1.15625 0.65625,0.46875 2.25,0.46875 v 0.4375 h -11.90625 v -0.4375 q 3.25,0.21875 3.25,-3.15625 v -37.03125 q 0,-3.15625 -0.53125,-4 -0.5,-0.84375 -2.71875,-0.9375 v -0.46875 h 11.90625 v 0.46875 q -1.96875,0.125 -2.65625,0.75 -0.6875,0.625 -0.6875,2.5625 v 18 h 25.28125 V 396.6582 q 0,-2.8125 -0.5,-3.8125 -0.46875,-1.03125 -2.6875,-1.03125 v -0.46875 h 11.78125 v 0.46875 q -1.40625,0 -2.09375,0.34375 -0.6875,0.3125 -0.9375,1 -0.25,0.6875 -0.25,3.5 v 35.34375 q 0,2.71875 0.25,3.40625 0.25,0.65625 0.875,1.09375 0.625,0.4375 2.15625,0.4375 v 0.4375 h -11.78125 v -0.4375 q 1.90625,0 2.53125,-0.78125 0.65625,-0.78125 0.65625,-4.21875 z"
         style="font-style:normal;font-variant:normal;font-weight:normal;font-stretch:normal;font-size:64px;font-family:'Felix Titling';-inkscape-font-specification:'Felix Titling'"
         id="path839" />
      <path
         d="m 379.86133,389.75195 -2.1875,5.5625 h -0.4375 q 0.125,-0.5 0.125,-1.34375 0,-0.71875 -0.53125,-0.90625 -0.5,-0.21875 -1.625,-0.21875 h -12.03125 v 39.40625 q 0,2.4375 0.375,3.34375 0.40625,0.875 1.0625,1.125 0.6875,0.21875 2.1875,0.21875 v 0.4375 h -12.46875 v -0.4375 q 2.34375,-0.15625 2.9375,-0.90625 0.59375,-0.75 0.59375,-3.125 v -40.0625 h -11.53125 q -1.75,0 -2.28125,0.21875 -0.53125,0.1875 -0.53125,1 0,0.40625 0.25,1.25 h -0.4375 l -2.1875,-5.5625 h 0.4375 q 0.5625,1.125 1.09375,1.375 0.5625,0.21875 2.375,0.21875 h 30.59375 q 1.8125,0 2.59375,-0.21875 0.8125,-0.25 1.1875,-1.375 z"
         style="font-style:normal;font-variant:normal;font-weight:normal;font-stretch:normal;font-size:64px;font-family:'Felix Titling';-inkscape-font-specification:'Felix Titling'"
         id="path841" />
      <path
         d="m 424.36133,391.3457 h 7.25 v 0.46875 q -3.65625,0.1875 -3.65625,3.84375 0,0.78125 0.1875,2.15625 l 4.8125,34.875 q 0.4375,2.625 0.96875,3.375 0.5625,0.71875 2.28125,0.875 v 0.4375 h -10.34375 v -0.4375 q 2.03125,0.0625 2.03125,-2 0,-0.46875 -0.1875,-1.84375 l -4.6875,-33.8125 -16.5,38.09375 h -0.3125 l -16.59375,-38.03125 -4.65625,34 q -0.125,0.78125 -0.125,1.78125 0,1.8125 2.09375,1.8125 v 0.4375 h -7.03125 v -0.4375 q 1.59375,0 2.03125,-0.40625 0.46875,-0.40625 0.71875,-1.25 0.25,-0.875 0.375,-1.9375 l 5.25,-37.1875 q -1.28125,-3.09375 -2.5625,-3.71875 -1.28125,-0.625 -2.46875,-0.625 v -0.46875 h 8.6875 l 16.1875,37.65625 z"
         style="font-style:normal;font-variant:normal;font-weight:normal;font-stretch:normal;font-size:64px;font-family:'Felix Titling';-inkscape-font-specification:'Felix Titling'"
         id="path843" />
      <path
         d="m 464.29883,390.6582 q 9.6875,0 15.84375,5.90625 6.15625,5.875 6.15625,14.6875 0,11.34375 -7.125,19.09375 -7.125,7.75 -18.90625,7.75 -9.5625,0 -15.65625,-6.25 -6.09375,-6.25 -6.09375,-15 0,-5.90625 2.9375,-12.125 2.9375,-6.21875 8.84375,-10.125 5.90625,-3.9375 14,-3.9375 z m -0.1875,45 q 4.75,0 9.375,-2.53125 4.625,-2.5625 7.28125,-7.03125 2.65625,-4.46875 2.65625,-9.1875 0,-6.6875 -3.59375,-12.15625 -3.5625,-5.46875 -9.28125,-8.5625 -5.6875,-3.09375 -10.53125,-3.09375 -6.84375,0 -12.4375,5.15625 -5.5625,5.15625 -5.5625,12.8125 0,9.78125 6.8125,17.1875 6.8125,7.40625 15.28125,7.40625 z"
         style="font-style:normal;font-variant:normal;font-weight:normal;font-stretch:normal;font-size:64px;font-family:'Felix Titling';-inkscape-font-specification:'Felix Titling'"
         id="path845" />
      <path
         d="m 533.76758,437.37695 h -8.6875 v -7.09375 q -6.65625,7.40625 -15.875,7.40625 -6.84375,0 -10.875,-3.84375 -4,-3.84375 -4,-10.625 v -27.5625 q 0,-2.5 -0.59375,-3.15625 -0.59375,-0.6875 -2.78125,-0.6875 v -0.46875 h 12.21875 v 0.46875 q -1.9375,0 -2.75,0.625 -0.78125,0.59375 -0.78125,2.875 v 25.28125 q 0,7.9375 3.71875,11.34375 3.71875,3.375 8.46875,3.375 7.46875,0 13.25,-6.71875 v -31.15625 q 0,-4.09375 -0.71875,-4.84375 -0.71875,-0.78125 -2.25,-0.78125 h -0.4375 v -0.46875 h 12.09375 v 0.46875 q -2.25,0.125 -2.84375,0.75 -0.5625,0.625 -0.5625,2.375 v 37.5 q 0,2.21875 0.21875,2.90625 0.21875,0.6875 0.875,1.15625 0.6875,0.4375 2.3125,0.4375 z"
         style="font-style:normal;font-variant:normal;font-weight:normal;font-stretch:normal;font-size:64px;font-family:'Felix Titling';-inkscape-font-specification:'Felix Titling'"
         id="path847" />
      <path
         d="m 560.95508,391.93945 2.1875,5.75 -0.375,0.0625 q 0,-0.0312 -1.75,-1.84375 -1.71875,-1.8125 -3.96875,-2.78125 -2.21875,-1 -5.03125,-1 -4.71875,0 -7.5,2.71875 -2.75,2.6875 -2.75,6.5 0,2.53125 1.28125,4.4375 1.3125,1.875 5.4375,3.5 7.09375,2.375 9.6875,3.59375 2.625,1.1875 5.03125,4.0625 2.4375,2.875 2.4375,7.375 0,1.875 -0.4375,3.59375 -0.4375,1.6875 -1.40625,3.28125 -0.96875,1.5625 -2.34375,2.875 -1.34375,1.28125 -2.75,1.96875 -1.40625,0.65625 -4.4375,1 -3.03125,0.34375 -4,0.34375 h -12.28125 v -13.375 h 0.46875 q 0.0625,6.65625 3.125,9.28125 3.0625,2.625 9.53125,2.625 5.875,0 8.90625,-2.78125 3.0625,-2.78125 3.0625,-6.6875 0,-2.375 -1.0625,-4.03125 -1.0625,-1.6875 -2.96875,-2.9375 -1.90625,-1.28125 -7.21875,-3.09375 -5.28125,-1.84375 -7.4375,-3.21875 -2.125,-1.40625 -3.5625,-4.1875 -1.4375,-2.8125 -1.4375,-5.71875 0,-5.34375 3.65625,-8.96875 3.6875,-3.625 9.65625,-3.625 2.3125,0 5,0.53125 2.6875,0.53125 3,0.6875 0.125,0.0625 0.25,0.0625 z"
         style="font-style:normal;font-variant:normal;font-weight:normal;font-stretch:normal;font-size:64px;font-family:'Felix Titling';-inkscape-font-specification:'Felix Titling'"
         id="path849" />
      <path
         d="m 569.51758,391.87695 v -0.53125 h 28.9375 v 6.34375 h -0.46875 q -0.9375,-3.53125 -1.59375,-4.15625 -0.625,-0.625 -3.125,-0.625 h -15.1875 v 20.65625 h 14.09375 q 2.09375,0 2.65625,-0.375 0.5625,-0.40625 0.59375,-1.15625 h 0.46875 v 4.34375 h -0.46875 q -0.15625,-0.90625 -0.75,-1.21875 -0.5625,-0.3125 -2.125,-0.3125 h -14.46875 v 14.21875 q 0,3.21875 0.59375,4.65625 0.59375,1.40625 1.875,1.78125 1.3125,0.34375 3.9375,0.34375 h 8.125 q 3.875,0 4.9375,-0.25 1.09375,-0.28125 1.84375,-1.0625 0.75,-0.8125 1.15625,-3.5 h 0.4375 v 6.34375 h -31.46875 v -0.4375 q 1.59375,-0.0937 2.40625,-0.59375 0.84375,-0.53125 0.84375,-2.6875 v -37.1875 q 0,-2.53125 -0.4375,-3.5625 -0.4375,-1.03125 -2.8125,-1.03125 z"
         style="font-style:normal;font-variant:normal;font-weight:normal;font-stretch:normal;font-size:64px;font-family:'Felix Titling';-inkscape-font-specification:'Felix Titling'"
         id="path851" />
    </g>
  </g>
</svg>
